# Blender v2.82 (sub 7) OBJ File: ''
# www.blender.org
o Cylinder
v 0.000000 -0.030000 -1.000000
v 0.000000 4.590000 -1.000000
v 0.195090 -0.030000 -0.980785
v 0.195090 4.590000 -0.980785
v 0.382683 -0.030000 -0.923880
v 0.382683 4.590000 -0.923880
v 0.555570 -0.030000 -0.831470
v 0.555570 4.590000 -0.831470
v 0.707107 -0.030000 -0.707107
v 0.707107 4.590000 -0.707107
v 0.831470 -0.030000 -0.555570
v 0.831470 4.590000 -0.555570
v 0.923880 -0.030000 -0.382683
v 0.923880 4.590000 -0.382683
v 0.980785 -0.030000 -0.195090
v 0.980785 4.590000 -0.195090
v 1.000000 -0.030000 -0.000000
v 1.000000 4.590000 -0.000000
v 0.980785 -0.030000 0.195090
v 0.980785 4.590000 0.195090
v 0.923880 -0.030000 0.382683
v 0.923880 4.590000 0.382683
v 0.831470 -0.030000 0.555570
v 0.831470 4.590000 0.555570
v 0.707107 -0.030000 0.707107
v 0.707107 4.590000 0.707107
v 0.555570 -0.030000 0.831470
v 0.555570 4.590000 0.831470
v 0.382683 -0.030000 0.923880
v 0.382683 4.590000 0.923880
v 0.195090 -0.030000 0.980785
v 0.195090 4.590000 0.980785
v -0.000000 -0.030000 1.000000
v -0.000000 4.590000 1.000000
v -0.195091 -0.030000 0.980785
v -0.195091 4.590000 0.980785
v -0.382684 -0.030000 0.923879
v -0.382684 4.590000 0.923879
v -0.555571 -0.030000 0.831469
v -0.555571 4.590000 0.831469
v -0.707107 -0.030000 0.707106
v -0.707107 4.590000 0.707106
v -0.831470 -0.030000 0.555570
v -0.831470 4.590000 0.555570
v -0.923880 -0.030000 0.382683
v -0.923880 4.590000 0.382683
v -0.980785 -0.030000 0.195089
v -0.980785 4.590000 0.195089
v -1.000000 -0.030000 -0.000001
v -1.000000 4.590000 -0.000001
v -0.980785 -0.030000 -0.195091
v -0.980785 4.590000 -0.195091
v -0.923879 -0.030000 -0.382684
v -0.923879 4.590000 -0.382684
v -0.831469 -0.030000 -0.555571
v -0.831469 4.590000 -0.555571
v -0.707106 -0.030000 -0.707108
v -0.707106 4.590000 -0.707108
v -0.555569 -0.030000 -0.831470
v -0.555569 4.590000 -0.831470
v -0.382682 -0.030000 -0.923880
v -0.382682 4.590000 -0.923880
v -0.195089 -0.030000 -0.980786
v -0.195089 4.590000 -0.980786
v 0.195090 0.053247 -0.980785
v 0.000000 0.053247 -1.000000
v 0.382683 0.053247 -0.923880
v 0.555570 0.053247 -0.831470
v 0.707107 0.053247 -0.707107
v 0.831470 0.053247 -0.555570
v 0.923880 0.053247 -0.382683
v 0.980785 0.053247 -0.195090
v 1.000000 0.053247 -0.000000
v 0.980785 0.053247 0.195090
v 0.923880 0.053247 0.382683
v 0.831470 0.053247 0.555570
v 0.707107 0.053247 0.707107
v 0.555570 0.053247 0.831470
v 0.382683 0.053247 0.923880
v 0.195090 0.053247 0.980785
v -0.000000 0.053247 1.000000
v -0.195091 0.053247 0.980785
v -0.382684 0.053247 0.923879
v -0.555571 0.053247 0.831469
v -0.707107 0.053247 0.707106
v -0.831470 0.053247 0.555570
v -0.923880 0.053247 0.382683
v -0.980785 0.053247 0.195089
v -1.000000 0.053247 -0.000001
v -0.980785 0.053247 -0.195091
v -0.923879 0.053247 -0.382684
v -0.831469 0.053247 -0.555571
v -0.707106 0.053247 -0.707108
v -0.555569 0.053247 -0.831470
v -0.382682 0.053247 -0.923880
v -0.195089 0.053247 -0.980786
v 0.000000 2.022402 0.978398
v 0.000000 2.020832 -0.966491
v 0.017657 2.024356 0.978254
v 0.017657 2.022786 -0.966636
v 0.034635 2.030143 0.977827
v 0.034635 2.028574 -0.967063
v 0.050283 2.039542 0.977133
v 0.050283 2.037972 -0.967756
v 0.063998 2.052189 0.976200
v 0.063998 2.050619 -0.968690
v 0.075253 2.067601 0.975063
v 0.075253 2.066031 -0.969827
v 0.083617 2.085183 0.973765
v 0.083617 2.083613 -0.971125
v 0.088767 2.104261 0.972357
v 0.088767 2.102692 -0.972533
v 0.090506 2.124102 0.970893
v 0.090506 2.122532 -0.973997
v 0.088767 2.143943 0.969429
v 0.088767 2.142373 -0.975461
v 0.083617 2.163021 0.968021
v 0.083617 2.161452 -0.976870
v 0.075253 2.180604 0.966723
v 0.075253 2.179034 -0.978167
v 0.063998 2.196015 0.965586
v 0.063998 2.194445 -0.979305
v 0.050283 2.208663 0.964652
v 0.050283 2.207093 -0.980238
v 0.034635 2.218061 0.963959
v 0.034635 2.216491 -0.980932
v 0.017657 2.223849 0.963532
v 0.017657 2.222279 -0.981359
v 0.000000 2.225803 0.963387
v 0.000000 2.224233 -0.981503
v -0.017657 2.223848 0.963532
v -0.017657 2.222278 -0.981359
v -0.034635 2.218061 0.963959
v -0.034635 2.216491 -0.980932
v -0.050282 2.208663 0.964652
v -0.050282 2.207093 -0.980238
v -0.063997 2.196015 0.965586
v -0.063997 2.194445 -0.979305
v -0.075253 2.180604 0.966723
v -0.075253 2.179034 -0.978167
v -0.083617 2.163021 0.968021
v -0.083617 2.161451 -0.976870
v -0.088767 2.143943 0.969429
v -0.088767 2.142373 -0.975461
v -0.090506 2.124102 0.970893
v -0.090506 2.122532 -0.973997
v -0.088767 2.104261 0.972357
v -0.088767 2.102691 -0.972533
v -0.083617 2.085183 0.973765
v -0.083617 2.083613 -0.971125
v -0.075253 2.067601 0.975063
v -0.075253 2.066031 -0.969827
v -0.063997 2.052189 0.976200
v -0.063997 2.050619 -0.968690
v -0.050282 2.039542 0.977133
v -0.050282 2.037971 -0.967756
v -0.034635 2.030143 0.977827
v -0.034635 2.028574 -0.967063
v -0.017657 2.024356 0.978254
v -0.017657 2.022786 -0.966636
v -0.278464 1.795524 0.252919
v -0.278464 2.530314 0.252919
v -0.278464 1.795524 -0.252919
v -0.278464 2.530314 -0.252919
v 0.278464 1.795524 0.252919
v 0.278464 2.530314 0.252919
v 0.278464 1.795524 -0.252919
v 0.278464 2.530314 -0.252919
vt 0.430550 0.000210
vt 0.459981 0.347167
vt 0.430550 0.346924
vt 0.459981 0.000453
vt 0.485658 0.347491
vt 0.728490 0.694242
vt 0.702800 0.347491
vt 0.728490 0.347491
vt 0.702800 0.694242
vt 0.673359 0.347491
vt 0.673359 0.694242
vt 0.641298 0.347491
vt 0.641298 0.694242
vt 0.607851 0.347491
vt 0.607851 0.694242
vt 0.574301 0.347491
vt 0.574301 0.694242
vt 0.541939 0.347491
vt 0.541939 0.694242
vt 0.512008 0.347491
vt 0.512008 0.694242
vt 0.485658 0.347491
vt 0.242829 0.347433
vt 0.216467 0.000408
vt 0.242829 0.000719
vt 0.216467 0.347121
vt 0.186527 0.000179
vt 0.186527 0.346893
vt 0.154160 0.000041
vt 0.154160 0.346755
vt 0.120608 0.000000
vt 0.120608 0.346714
vt 0.087163 0.000057
vt 0.087163 0.346771
vt 0.055109 0.000210
vt 0.055109 0.346924
vt 0.025677 0.000453
vt 0.025677 0.347167
vt 0.000000 0.000777
vt 0.728490 0.346752
vt 0.702800 0.000000
vt 0.728490 0.000000
vt 0.702800 0.346752
vt 0.673359 0.000000
vt 0.673359 0.346752
vt 0.641298 0.000000
vt 0.641298 0.346752
vt 0.607851 0.000000
vt 0.607851 0.346752
vt 0.574301 0.000000
vt 0.574301 0.346752
vt 0.541939 0.000000
vt 0.541939 0.346752
vt 0.512008 0.000000
vt 0.512008 0.346752
vt 0.485658 0.000000
vt 0.242829 0.000719
vt 0.269191 0.347122
vt 0.242829 0.347433
vt 0.269191 0.000408
vt 0.299132 0.346893
vt 0.299131 0.000179
vt 0.331499 0.346755
vt 0.331499 0.000041
vt 0.365050 0.346714
vt 0.915040 0.687994
vt 0.944972 0.347491
vt 0.944972 0.687994
vt 0.365050 0.000000
vt 0.398496 0.346771
vt 0.398495 0.000057
vt 0.459981 0.688410
vt 0.485659 0.348268
vt 0.485658 0.688734
vt 0.000000 0.688015
vt 0.026362 0.347860
vt 0.026362 0.688326
vt 0.783621 0.687994
vt 0.815681 0.347491
vt 0.815681 0.687994
vt 0.331499 0.687998
vt 0.365050 0.347491
vt 0.365050 0.687957
vt 0.187720 0.688524
vt 0.217152 0.347814
vt 0.217152 0.688281
vt 0.849129 0.340504
vt 0.882679 0.000000
vt 0.882679 0.340504
vt 0.155666 0.688677
vt 0.187720 0.348057
vt 0.971321 0.347491
vt 0.971321 0.687994
vt 0.728490 0.340504
vt 0.754180 0.000000
vt 0.754180 0.340504
vt 0.056302 0.348089
vt 0.056302 0.688555
vt 0.849129 0.347491
vt 0.849129 0.687994
vt 0.398495 0.347548
vt 0.398495 0.688014
vt 0.915041 0.000000
vt 0.915041 0.340504
vt 0.242829 0.347491
vt 0.242829 0.687957
vt 0.242829 0.688676
vt 0.269191 0.347898
vt 0.269191 0.688365
vt 0.783621 0.000000
vt 0.783621 0.340504
vt 0.088670 0.348226
vt 0.088670 0.688693
vt 0.882678 0.347491
vt 0.882678 0.687994
vt 0.430550 0.347701
vt 0.430550 0.688167
vt 0.944972 0.000000
vt 0.944972 0.340504
vt 0.728490 0.687994
vt 0.754180 0.347491
vt 0.754180 0.687994
vt 0.299131 0.347669
vt 0.299131 0.688136
vt 0.815682 0.000000
vt 0.815682 0.340504
vt 0.122221 0.348267
vt 0.122221 0.688734
vt 0.915040 0.347491
vt 0.459981 0.347944
vt 0.971321 0.000000
vt 0.971321 0.340503
vt 0.783621 0.347491
vt 0.331499 0.347532
vt 0.849129 0.000000
vt 0.155666 0.348210
vt 0.985907 0.684687
vt 0.982872 0.347516
vt 0.985907 0.347491
vt 0.982872 0.684712
vt 0.979937 0.347590
vt 0.979937 0.684786
vt 0.977217 0.347710
vt 0.977217 0.684906
vt 0.974815 0.347871
vt 0.974815 0.685068
vt 0.972825 0.348068
vt 0.972825 0.685265
vt 0.971321 0.348293
vt 0.977108 0.686413
vt 0.978526 1.000000
vt 0.977108 0.999897
vt 0.978526 0.686516
vt 0.980001 0.999876
vt 0.980001 0.686391
vt 0.981477 0.999529
vt 0.981477 0.686045
vt 0.982895 0.998974
vt 0.971321 0.000802
vt 0.972687 0.337774
vt 0.971321 0.337999
vt 0.972687 0.000577
vt 0.974556 0.337577
vt 0.974556 0.000380
vt 0.976858 0.337416
vt 0.976858 0.000219
vt 0.979505 0.337296
vt 0.979505 0.000099
vt 0.982394 0.337222
vt 0.982394 0.000025
vt 0.985414 0.337197
vt 0.988450 0.000025
vt 0.988450 0.337222
vt 0.991384 0.000099
vt 0.991384 0.337296
vt 0.994104 0.000219
vt 0.994104 0.337416
vt 0.996506 0.000380
vt 0.996506 0.337577
vt 0.998497 0.000577
vt 0.998497 0.337774
vt 1.000000 0.000802
vt 1.000000 0.337999
vt 0.971321 0.999076
vt 0.972740 0.685489
vt 0.972740 0.998974
vt 0.974215 0.685614
vt 0.974215 0.999098
vt 0.975690 0.685960
vt 0.975690 0.999445
vt 0.977108 0.686516
vt 0.977108 1.000000
vt 1.000000 0.348293
vt 0.998635 0.685265
vt 0.998635 0.348068
vt 0.996765 0.685068
vt 0.996765 0.347871
vt 0.994463 0.684906
vt 0.994463 0.347710
vt 0.991816 0.684786
vt 0.991816 0.347590
vt 0.435196 0.693559
vt 0.436022 0.695845
vt 0.424525 0.692333
vt 0.988928 0.684712
vt 0.988928 0.347516
vt 0.420105 0.694404
vt 0.420930 0.696810
vt 0.407557 0.695845
vt 0.406698 0.688734
vt 0.352073 0.770267
vt 0.352073 0.688734
vt 0.173733 0.777692
vt 0.228351 0.688734
vt 0.228351 0.777340
vt 0.352072 0.688734
vt 0.297447 0.770267
vt 0.297447 0.688734
vt 0.242829 0.777340
vt 0.297447 0.689086
vt 0.297447 0.777692
vt 0.173733 0.785158
vt 0.086867 0.688734
vt 0.173733 0.688735
vt 0.000000 0.688735
vt 0.086867 0.785157
vt 0.000000 0.785158
vt 0.485658 0.000777
vt 0.485658 0.694242
vt 0.000000 0.347491
vt 0.485658 0.346752
vt 0.000000 0.347549
vt 0.728490 0.000000
vt 0.242829 0.348210
vt 0.728490 0.347491
vt 0.971321 0.685489
vt 0.982895 0.685489
vt 0.985414 0.000000
vt 0.971321 0.685592
vt 1.000000 0.685489
vt 0.436591 0.698412
vt 0.436881 0.701158
vt 0.422079 0.699459
vt 0.436881 0.703980
vt 0.421789 0.702247
vt 0.436591 0.706769
vt 0.421789 0.705069
vt 0.436022 0.709417
vt 0.422079 0.707816
vt 0.435196 0.711823
vt 0.434145 0.713895
vt 0.422648 0.710382
vt 0.432909 0.715552
vt 0.423474 0.712669
vt 0.431536 0.716731
vt 0.424525 0.714589
vt 0.430078 0.717386
vt 0.427134 0.717048
vt 0.428592 0.717494
vt 0.425761 0.716067
vt 0.422648 0.696810
vt 0.423474 0.694404
vt 0.425761 0.690676
vt 0.427134 0.689497
vt 0.434145 0.691639
vt 0.428592 0.688841
vt 0.432909 0.690160
vt 0.430078 0.688734
vt 0.431536 0.689179
vt 0.421499 0.699459
vt 0.421789 0.702247
vt 0.406698 0.703980
vt 0.421789 0.705069
vt 0.406988 0.706769
vt 0.421499 0.707816
vt 0.420930 0.710382
vt 0.407556 0.709417
vt 0.420105 0.712669
vt 0.409433 0.713895
vt 0.419054 0.714589
vt 0.410669 0.715552
vt 0.417818 0.716067
vt 0.416444 0.717048
vt 0.412042 0.716731
vt 0.414987 0.717494
vt 0.413500 0.717386
vt 0.408382 0.711823
vt 0.406698 0.701158
vt 0.406988 0.698412
vt 0.408382 0.693559
vt 0.419054 0.692333
vt 0.409433 0.691639
vt 0.417818 0.690676
vt 0.410669 0.690160
vt 0.412043 0.689179
vt 0.416445 0.689497
vt 0.413500 0.688734
vt 0.414987 0.688841
vt 0.406698 0.770267
vt 0.173733 0.689086
vt 0.352072 0.770267
vt 0.242829 0.688734
vt 0.086867 0.785157
vt 0.086867 0.688734
vn 0.0980 0.0000 -0.9952
vn 0.2903 0.0000 -0.9569
vn 0.4714 0.0000 -0.8819
vn 0.6344 0.0000 -0.7730
vn 0.7730 0.0000 -0.6344
vn 0.8819 0.0000 -0.4714
vn 0.9569 0.0000 -0.2903
vn 0.9952 0.0000 -0.0980
vn 0.9952 0.0000 0.0980
vn 0.9569 0.0000 0.2903
vn 0.8819 0.0000 0.4714
vn 0.7730 0.0000 0.6344
vn 0.6344 0.0000 0.7730
vn 0.4714 0.0000 0.8819
vn 0.2903 0.0000 0.9569
vn 0.0980 0.0000 0.9952
vn -0.0980 0.0000 0.9952
vn -0.2903 0.0000 0.9569
vn -0.4714 0.0000 0.8819
vn -0.6344 0.0000 0.7730
vn -0.7730 0.0000 0.6344
vn -0.8819 0.0000 0.4714
vn -0.9569 0.0000 0.2903
vn -0.9952 0.0000 0.0980
vn -0.9952 0.0000 -0.0980
vn -0.9569 0.0000 -0.2903
vn -0.8819 0.0000 -0.4714
vn -0.7730 0.0000 -0.6344
vn -0.6344 0.0000 -0.7730
vn -0.4714 0.0000 -0.8819
vn -0.2903 0.0000 -0.9569
vn -0.0980 0.0000 -0.9952
vn 0.1100 -0.9939 0.0008
vn 0.3226 -0.9465 0.0008
vn 0.5149 -0.8572 0.0007
vn 0.6779 -0.7351 0.0006
vn 0.8076 -0.5898 0.0005
vn 0.9030 -0.4295 0.0003
vn 0.9654 -0.2606 0.0002
vn 0.9962 -0.0873 0.0001
vn 0.9962 0.0873 -0.0001
vn 0.9654 0.2606 -0.0002
vn 0.9031 0.4295 -0.0003
vn 0.8076 0.5898 -0.0005
vn 0.6779 0.7351 -0.0006
vn 0.5149 0.8572 -0.0007
vn 0.3227 0.9465 -0.0008
vn 0.1100 0.9939 -0.0008
vn -0.1100 0.9939 -0.0008
vn -0.3226 0.9465 -0.0008
vn -0.5149 0.8572 -0.0007
vn -0.6779 0.7351 -0.0006
vn -0.8076 0.5898 -0.0005
vn -0.9030 0.4295 -0.0003
vn -0.9654 0.2606 -0.0002
vn -0.9962 0.0873 -0.0001
vn -0.9962 -0.0873 0.0001
vn -0.9654 -0.2606 0.0002
vn -0.9030 -0.4295 0.0003
vn -0.8076 -0.5898 0.0005
vn -0.6779 -0.7351 0.0006
vn -0.5149 -0.8572 0.0007
vn 0.0000 -0.0736 -0.9973
vn -0.3226 -0.9465 0.0008
vn -0.1100 -0.9939 0.0008
vn 0.0000 0.0736 0.9973
vn -1.0000 0.0000 0.0000
vn 0.0000 0.0000 -1.0000
vn 1.0000 0.0000 0.0000
vn 0.0000 0.0000 1.0000
vn 0.0000 -1.0000 0.0000
vn 0.0000 1.0000 0.0000
vn 0.9031 -0.4295 0.0003
vn 0.9030 0.4295 -0.0003
vn 0.6780 0.7351 -0.0006
vn -0.6780 0.7351 -0.0006
vn -0.9031 0.4295 -0.0003
vn -0.9031 -0.4295 0.0003
vn -0.6780 -0.7351 0.0006
vn 0.0001 -0.0736 -0.9973
vn -0.0001 -0.0736 -0.9973
vn 0.0001 0.0736 0.9973
vn -0.0001 0.0736 0.9973
s off
f 2/1/1 3/2/1 1/3/1
f 4/4/2 5/5/2 3/2/2
f 6/6/3 7/7/3 5/8/3
f 8/9/4 9/10/4 7/7/4
f 10/11/5 11/12/5 9/10/5
f 12/13/6 13/14/6 11/12/6
f 14/15/7 15/16/7 13/14/7
f 16/17/8 17/18/8 15/16/8
f 18/19/9 19/20/9 17/18/9
f 20/21/10 21/22/10 19/20/10
f 22/23/11 23/24/11 21/25/11
f 24/26/12 25/27/12 23/24/12
f 26/28/13 27/29/13 25/27/13
f 28/30/14 29/31/14 27/29/14
f 30/32/15 31/33/15 29/31/15
f 32/34/16 33/35/16 31/33/16
f 34/36/17 35/37/17 33/35/17
f 36/38/18 37/39/18 35/37/18
f 38/40/19 39/41/19 37/42/19
f 40/43/20 41/44/20 39/41/20
f 42/45/21 43/46/21 41/44/21
f 44/47/22 45/48/22 43/46/22
f 46/49/23 47/50/23 45/48/23
f 48/51/24 49/52/24 47/50/24
f 50/53/25 51/54/25 49/52/25
f 52/55/26 53/56/26 51/54/26
f 54/57/27 55/58/27 53/59/27
f 56/60/28 57/61/28 55/58/28
f 58/62/29 59/63/29 57/61/29
f 60/64/30 61/65/30 59/63/30
f 18/66/25 74/67/25 20/68/25
f 62/69/31 63/70/31 61/65/31
f 64/71/32 1/3/32 63/70/32
f 36/72/2 83/73/2 38/74/2
f 54/75/11 92/76/11 56/77/11
f 10/78/21 70/79/21 12/80/21
f 28/81/30 79/82/30 30/83/30
f 2/84/17 65/85/17 4/86/17
f 46/87/7 88/88/7 48/89/7
f 64/90/16 66/91/16 2/84/16
f 20/68/26 75/92/26 22/93/26
f 38/94/3 84/95/3 40/96/3
f 56/77/12 93/97/12 58/98/12
f 12/80/22 71/99/22 14/100/22
f 30/83/31 80/101/31 32/102/31
f 48/89/8 89/103/8 50/104/8
f 4/86/18 67/105/18 6/106/18
f 22/107/27 76/108/27 24/109/27
f 40/96/4 85/110/4 42/111/4
f 58/98/13 94/112/13 60/113/13
f 14/100/23 72/114/23 16/115/23
f 32/102/32 81/116/32 34/117/32
f 50/104/9 90/118/9 52/119/9
f 6/120/19 68/121/19 8/122/19
f 24/109/28 77/123/28 26/124/28
f 42/111/5 86/125/5 44/126/5
f 60/113/14 95/127/14 62/128/14
f 16/115/24 73/129/24 18/66/24
f 34/117/1 82/130/1 36/72/1
f 52/119/10 91/131/10 54/132/10
f 8/122/20 69/133/20 10/78/20
f 26/124/29 78/134/29 28/81/29
f 44/126/6 87/135/6 46/87/6
f 62/128/15 96/136/15 64/90/15
f 98/137/33 99/138/33 97/139/33
f 100/140/34 101/141/34 99/138/34
f 102/142/35 103/143/35 101/141/35
f 104/144/36 105/145/36 103/143/36
f 106/146/37 107/147/37 105/145/37
f 108/148/38 109/149/38 107/147/38
f 110/150/39 111/151/39 109/152/39
f 112/153/40 113/154/40 111/151/40
f 114/155/41 115/156/41 113/154/41
f 116/157/42 117/158/42 115/156/42
f 118/159/43 119/160/43 117/161/43
f 120/162/44 121/163/44 119/160/44
f 122/164/45 123/165/45 121/163/45
f 124/166/46 125/167/46 123/165/46
f 126/168/47 127/169/47 125/167/47
f 128/170/48 129/171/48 127/169/48
f 129/171/49 132/172/49 131/173/49
f 131/173/50 134/174/50 133/175/50
f 133/175/51 136/176/51 135/177/51
f 135/177/52 138/178/52 137/179/52
f 137/179/53 140/180/53 139/181/53
f 139/181/54 142/182/54 141/183/54
f 141/184/55 144/185/55 143/186/55
f 143/186/56 146/187/56 145/188/56
f 145/188/57 148/189/57 147/190/57
f 147/190/58 150/191/58 149/192/58
f 149/193/59 152/194/59 151/195/59
f 151/195/60 154/196/60 153/197/60
f 153/197/61 156/198/61 155/199/61
f 155/199/62 158/200/62 157/201/62
f 106/202/63 104/203/63 122/204/63
f 157/201/64 160/205/64 159/206/64
f 159/206/65 98/137/65 97/139/65
f 155/207/66 157/208/66 135/209/66
f 162/210/67 163/211/67 161/212/67
f 164/213/68 167/214/68 163/215/68
f 168/216/69 165/217/69 167/218/69
f 166/219/70 161/220/70 165/221/70
f 167/222/71 161/223/71 163/224/71
f 164/225/72 166/226/72 168/227/72
f 2/1/1 4/4/1 3/2/1
f 4/4/2 6/228/2 5/5/2
f 6/6/3 8/9/3 7/7/3
f 8/9/4 10/11/4 9/10/4
f 10/11/5 12/13/5 11/12/5
f 12/13/6 14/15/6 13/14/6
f 14/15/7 16/17/7 15/16/7
f 16/17/8 18/19/8 17/18/8
f 18/19/9 20/21/9 19/20/9
f 20/21/10 22/229/10 21/22/10
f 22/23/11 24/26/11 23/24/11
f 24/26/12 26/28/12 25/27/12
f 26/28/13 28/30/13 27/29/13
f 28/30/14 30/32/14 29/31/14
f 30/32/15 32/34/15 31/33/15
f 32/34/16 34/36/16 33/35/16
f 34/36/17 36/38/17 35/37/17
f 36/38/18 38/230/18 37/39/18
f 38/40/19 40/43/19 39/41/19
f 40/43/20 42/45/20 41/44/20
f 42/45/21 44/47/21 43/46/21
f 44/47/22 46/49/22 45/48/22
f 46/49/23 48/51/23 47/50/23
f 48/51/24 50/53/24 49/52/24
f 50/53/25 52/55/25 51/54/25
f 52/55/26 54/231/26 53/56/26
f 54/57/27 56/60/27 55/58/27
f 56/60/28 58/62/28 57/61/28
f 58/62/29 60/64/29 59/63/29
f 60/64/30 62/69/30 61/65/30
f 18/66/25 73/129/25 74/67/25
f 62/69/31 64/71/31 63/70/31
f 64/71/32 2/1/32 1/3/32
f 36/72/2 82/130/2 83/73/2
f 54/75/11 91/232/11 92/76/11
f 10/78/21 69/133/21 70/79/21
f 28/81/30 78/134/30 79/82/30
f 2/84/17 66/91/17 65/85/17
f 46/87/7 87/135/7 88/88/7
f 64/90/16 96/136/16 66/91/16
f 20/68/26 74/67/26 75/92/26
f 38/94/3 83/233/3 84/95/3
f 56/77/12 92/76/12 93/97/12
f 12/80/22 70/79/22 71/99/22
f 30/83/31 79/82/31 80/101/31
f 48/89/8 88/88/8 89/103/8
f 4/86/18 65/85/18 67/105/18
f 22/107/27 75/234/27 76/108/27
f 40/96/4 84/95/4 85/110/4
f 58/98/13 93/97/13 94/112/13
f 14/100/23 71/99/23 72/114/23
f 32/102/32 80/101/32 81/116/32
f 50/104/9 89/103/9 90/118/9
f 6/120/19 67/235/19 68/121/19
f 24/109/28 76/108/28 77/123/28
f 42/111/5 85/110/5 86/125/5
f 60/113/14 94/112/14 95/127/14
f 16/115/24 72/114/24 73/129/24
f 34/117/1 81/116/1 82/130/1
f 52/119/10 90/118/10 91/131/10
f 8/122/20 68/121/20 69/133/20
f 26/124/29 77/123/29 78/134/29
f 44/126/6 86/125/6 87/135/6
f 62/128/15 95/127/15 96/136/15
f 98/137/33 100/140/33 99/138/33
f 100/140/34 102/142/34 101/141/34
f 102/142/35 104/144/35 103/143/35
f 104/144/36 106/146/36 105/145/36
f 106/146/37 108/148/37 107/147/37
f 108/148/73 110/236/73 109/149/73
f 110/150/39 112/153/39 111/151/39
f 112/153/40 114/155/40 113/154/40
f 114/155/41 116/157/41 115/156/41
f 116/157/42 118/237/42 117/158/42
f 118/159/74 120/162/74 119/160/74
f 120/162/44 122/164/44 121/163/44
f 122/164/75 124/166/75 123/165/75
f 124/166/46 126/168/46 125/167/46
f 126/168/47 128/170/47 127/169/47
f 128/170/48 130/238/48 129/171/48
f 129/171/49 130/238/49 132/172/49
f 131/173/50 132/172/50 134/174/50
f 133/175/51 134/174/51 136/176/51
f 135/177/76 136/176/76 138/178/76
f 137/179/53 138/178/53 140/180/53
f 139/181/77 140/180/77 142/182/77
f 141/184/55 142/239/55 144/185/55
f 143/186/56 144/185/56 146/187/56
f 145/188/57 146/187/57 148/189/57
f 147/190/58 148/189/58 150/191/58
f 149/193/78 150/240/78 152/194/78
f 151/195/60 152/194/60 154/196/60
f 153/197/79 154/196/79 156/198/79
f 155/199/62 156/198/62 158/200/62
f 102/241/63 100/242/63 128/243/63
f 100/242/63 98/244/63 130/245/63
f 98/244/63 160/246/63 132/247/63
f 160/246/63 158/248/63 134/249/63
f 158/248/63 156/250/63 134/249/63
f 156/250/63 154/251/63 136/252/63
f 134/249/63 156/250/63 136/252/63
f 154/251/63 152/253/63 138/254/63
f 152/253/63 150/255/63 140/256/63
f 138/254/63 152/253/63 140/256/63
f 150/255/80 148/257/80 144/258/80
f 148/257/81 146/259/81 144/258/81
f 144/258/63 142/260/63 150/255/63
f 142/260/63 140/256/63 150/255/63
f 138/254/63 136/252/63 154/251/63
f 134/249/63 132/247/63 160/246/63
f 132/247/63 130/245/63 98/244/63
f 130/245/63 128/243/63 100/242/63
f 128/243/63 126/261/63 102/241/63
f 126/261/63 124/262/63 102/241/63
f 124/262/63 122/204/63 104/203/63
f 102/241/63 124/262/63 104/203/63
f 122/204/63 120/263/63 106/202/63
f 120/263/63 118/264/63 108/265/63
f 106/202/63 120/263/63 108/265/63
f 118/264/63 116/266/63 110/267/63
f 116/266/80 114/268/80 112/269/80
f 110/267/81 116/266/81 112/269/81
f 110/267/63 108/265/63 118/264/63
f 157/201/64 158/200/64 160/205/64
f 159/206/65 160/205/65 98/137/65
f 159/270/66 97/271/66 129/272/66
f 97/271/66 99/273/66 127/274/66
f 99/273/66 101/275/66 127/274/66
f 101/275/66 103/276/66 125/277/66
f 127/274/66 101/275/66 125/277/66
f 103/276/66 105/278/66 121/279/66
f 105/278/66 107/280/66 119/281/66
f 107/280/66 109/282/66 119/281/66
f 109/282/66 111/283/66 117/284/66
f 119/281/66 109/282/66 117/284/66
f 111/283/82 113/285/82 115/286/82
f 115/286/83 117/284/83 111/283/83
f 119/281/66 121/279/66 105/278/66
f 121/279/66 123/287/66 103/276/66
f 123/287/66 125/277/66 103/276/66
f 127/274/66 129/272/66 97/271/66
f 129/272/66 131/288/66 159/270/66
f 131/288/66 133/289/66 159/270/66
f 133/289/66 135/209/66 157/208/66
f 159/270/66 133/289/66 157/208/66
f 135/209/66 137/290/66 153/291/66
f 137/290/66 139/292/66 151/293/66
f 139/292/66 141/294/66 151/293/66
f 141/294/82 143/295/82 149/296/82
f 151/293/66 141/294/66 149/296/66
f 143/295/83 145/297/83 147/298/83
f 147/298/66 149/296/66 143/295/66
f 151/293/66 153/291/66 137/290/66
f 153/291/66 155/207/66 135/209/66
f 162/210/67 164/299/67 163/211/67
f 164/213/68 168/300/68 167/214/68
f 168/216/69 166/301/69 165/217/69
f 166/219/70 162/302/70 161/220/70
f 167/222/71 165/303/71 161/223/71
f 164/225/72 162/304/72 166/226/72
