# Blender v2.82 (sub 7) OBJ File: ''
# www.blender.org
o Cone
v 0.000000 -22.740000 -9.470000
v 1.950903 -22.740000 -9.288036
v 3.826835 -22.740000 -8.749139
v 5.555702 -22.740000 -7.874017
v 7.071068 -22.740000 -6.696301
v 8.314696 -22.740000 -5.261250
v 9.238795 -22.740000 -3.624012
v 9.807853 -22.740000 -1.847506
v 10.000000 -22.740000 -0.000001
v 9.807853 -22.740000 1.847504
v 9.238795 -22.740000 3.624011
v 8.314696 -22.740000 5.261250
v 7.071068 -22.740000 6.696301
v 5.555702 -22.740000 7.874018
v 3.826833 -22.740000 8.749141
v 1.950901 -22.740000 9.288037
v -0.000003 -22.740000 9.470000
v -1.950907 -22.740000 9.288036
v -3.826839 -22.740000 8.749138
v -5.555707 -22.740000 7.874014
v -7.071073 -22.740000 6.696297
v -8.314700 -22.740000 5.261245
v -9.238798 -22.740000 3.624005
v 0.000000 24.839998 0.000000
v -9.807855 -22.740000 1.847497
v -10.000000 -22.740000 -0.000009
v -9.807851 -22.740000 -1.847515
v -9.238791 -22.740000 -3.624022
v -8.314690 -22.740000 -5.261260
v -7.071059 -22.740000 -6.696310
v -5.555691 -22.740000 -7.874024
v -3.826821 -22.740000 -8.749145
v -1.950888 -22.740000 -9.288039
v -2.772099 26.090851 2.505301
v -2.772099 31.275679 2.505301
v -2.772099 26.090851 -2.505301
v -2.772099 31.275679 -2.505301
v 2.772099 26.090851 2.505301
v 2.772099 31.275679 2.505301
v 2.772099 26.090851 -2.505301
v 2.772099 31.275679 -2.505301
vt 0.562108 0.527155
vt 0.712944 1.000000
vt 0.522988 0.542470
vt 0.486330 0.560203
vt 0.453544 0.579671
vt 0.425888 0.600127
vt 0.712944 0.399873
vt 1.000000 0.000000
vt 0.740600 0.420329
vt 0.773387 0.439797
vt 0.810044 0.457529
vt 0.849164 0.472845
vt 0.889243 0.485154
vt 0.928740 0.493985
vt 0.966138 0.498998
vt 1.000000 0.500000
vt 0.000000 0.845216
vt 0.287056 0.445343
vt 0.027656 0.865672
vt 0.060443 0.885140
vt 0.097100 0.902872
vt 0.136220 0.918188
vt 0.176299 0.930497
vt 0.215796 0.939328
vt 0.253195 0.944341
vt 0.287056 0.945343
vt 0.712944 0.000000
vt 0.712944 0.500000
vt 0.679082 0.001002
vt 0.641684 0.006015
vt 0.602187 0.014845
vt 0.562108 0.027155
vt 0.522988 0.042470
vt 0.486330 0.060203
vt 0.453544 0.079671
vt 0.425888 0.100127
vt 0.712944 0.500000
vt 0.679082 0.501002
vt 0.641684 0.506015
vt 0.602186 0.514845
vt 0.275057 0.008557
vt 0.417704 0.287622
vt 0.150830 0.436786
vt 0.287056 0.811830
vt 0.330408 0.693444
vt 0.330408 0.811830
vt 0.712944 0.624051
vt 0.756296 0.500000
vt 0.756296 0.624051
vt 0.330408 0.811830
vt 0.373761 0.693444
vt 0.373761 0.811830
vt 0.756296 0.624051
vt 0.712944 0.748102
vt 0.712944 0.624051
vt 0.400271 0.569394
vt 0.287056 0.445343
vt 0.400271 0.445343
vt 0.287056 0.569394
vt 0.400271 0.693444
vt 0.287056 0.693444
vt 0.008183 0.157720
vt 0.024235 0.117197
vt 0.047540 0.080727
vt 0.077200 0.049711
vt 0.112077 0.025343
vt 0.150830 0.008557
vt 0.191971 0.000000
vt 0.233917 0.000000
vt 0.313810 0.025343
vt 0.348687 0.049711
vt 0.378348 0.080727
vt 0.401652 0.117197
vt 0.417704 0.157720
vt 0.425888 0.200740
vt 0.425888 0.244603
vt 0.401652 0.328146
vt 0.378348 0.364616
vt 0.348688 0.395632
vt 0.313810 0.420000
vt 0.275057 0.436786
vt 0.233917 0.445343
vt 0.191971 0.445343
vt 0.112077 0.420000
vt 0.077200 0.395631
vt 0.047539 0.364616
vt 0.024235 0.328146
vt 0.008183 0.287622
vt 0.000000 0.244602
vt 0.000000 0.200740
vt 0.287056 0.693444
vt 0.712944 0.500000
vt 0.330408 0.693444
vt 0.756296 0.748102
vt 0.287056 0.569394
vt 0.400271 0.569394
vn 0.0911 0.1944 -0.9767
vn 0.2708 0.1951 -0.9427
vn 0.4428 0.1965 -0.8748
vn 0.6015 0.1983 -0.7739
vn 0.7404 0.2003 -0.6416
vn 0.8529 0.2023 -0.4814
vn 0.9324 0.2038 -0.2987
vn 0.9736 0.2046 -0.1013
vn 0.9736 0.2046 0.1013
vn 0.9324 0.2038 0.2987
vn 0.8529 0.2023 0.4814
vn 0.7404 0.2003 0.6416
vn 0.6015 0.1983 0.7739
vn 0.4428 0.1965 0.8748
vn 0.2708 0.1951 0.9427
vn 0.0911 0.1944 0.9767
vn -0.0911 0.1944 0.9767
vn -0.2708 0.1951 0.9427
vn -0.4428 0.1965 0.8748
vn -0.6015 0.1983 0.7739
vn -0.7404 0.2003 0.6416
vn -0.8529 0.2023 0.4814
vn -0.9324 0.2038 0.2987
vn -0.9736 0.2046 0.1013
vn -0.9736 0.2046 -0.1013
vn -0.9323 0.2038 -0.2987
vn -0.8529 0.2023 -0.4814
vn -0.7404 0.2003 -0.6416
vn -0.6015 0.1983 -0.7739
vn -0.4428 0.1965 -0.8748
vn -0.2708 0.1951 -0.9427
vn -0.0911 0.1944 -0.9767
vn 0.0000 -1.0000 0.0000
vn -1.0000 0.0000 0.0000
vn 0.0000 0.0000 -1.0000
vn 1.0000 0.0000 0.0000
vn 0.0000 0.0000 1.0000
vn 0.0000 1.0000 0.0000
s off
f 1/1/1 24/2/1 2/3/1
f 2/3/2 24/2/2 3/4/2
f 3/4/3 24/2/3 4/5/3
f 4/5/4 24/2/4 5/6/4
f 5/7/5 24/8/5 6/9/5
f 6/9/6 24/8/6 7/10/6
f 7/10/7 24/8/7 8/11/7
f 8/11/8 24/8/8 9/12/8
f 9/12/9 24/8/9 10/13/9
f 10/13/10 24/8/10 11/14/10
f 11/14/11 24/8/11 12/15/11
f 12/15/12 24/8/12 13/16/12
f 13/17/13 24/18/13 14/19/13
f 14/19/14 24/18/14 15/20/14
f 15/20/15 24/18/15 16/21/15
f 16/21/16 24/18/16 17/22/16
f 17/22/17 24/18/17 18/23/17
f 18/23/18 24/18/18 19/24/18
f 19/24/19 24/18/19 20/25/19
f 20/25/20 24/18/20 21/26/20
f 21/27/21 24/28/21 22/29/21
f 22/29/22 24/28/22 23/30/22
f 23/30/23 24/28/23 25/31/23
f 25/31/24 24/28/24 26/32/24
f 26/32/25 24/28/25 27/33/25
f 27/33/26 24/28/26 28/34/26
f 28/34/27 24/28/27 29/35/27
f 29/35/28 24/28/28 30/36/28
f 30/37/29 24/2/29 31/38/29
f 31/38/30 24/2/30 32/39/30
f 32/39/31 24/2/31 33/40/31
f 33/40/32 24/2/32 1/1/32
f 8/41/33 16/42/33 25/43/33
f 35/44/34 36/45/34 34/46/34
f 37/47/35 40/48/35 36/49/35
f 41/50/36 38/51/36 40/52/36
f 39/53/37 34/54/37 38/55/37
f 40/56/33 34/57/33 36/58/33
f 37/59/38 39/60/38 41/61/38
f 33/62/33 1/63/33 2/64/33
f 2/64/33 3/65/33 4/66/33
f 4/66/33 5/67/33 6/68/33
f 6/68/33 7/69/33 4/66/33
f 7/69/33 8/41/33 4/66/33
f 8/41/33 9/70/33 10/71/33
f 10/71/33 11/72/33 8/41/33
f 11/72/33 12/73/33 8/41/33
f 12/73/33 13/74/33 16/42/33
f 13/74/33 14/75/33 16/42/33
f 14/75/33 15/76/33 16/42/33
f 16/42/33 17/77/33 18/78/33
f 18/78/33 19/79/33 20/80/33
f 20/80/33 21/81/33 22/82/33
f 22/82/33 23/83/33 25/43/33
f 25/43/33 26/84/33 27/85/33
f 27/85/33 28/86/33 29/87/33
f 29/87/33 30/88/33 33/62/33
f 30/88/33 31/89/33 33/62/33
f 31/89/33 32/90/33 33/62/33
f 33/62/33 2/64/33 4/66/33
f 16/42/33 18/78/33 25/43/33
f 18/78/33 20/80/33 25/43/33
f 20/80/33 22/82/33 25/43/33
f 25/43/33 27/85/33 33/62/33
f 27/85/33 29/87/33 33/62/33
f 33/62/33 4/66/33 8/41/33
f 8/41/33 12/73/33 16/42/33
f 33/62/33 8/41/33 25/43/33
f 35/44/34 37/91/34 36/45/34
f 37/47/35 41/92/35 40/48/35
f 41/50/36 39/93/36 38/51/36
f 39/53/37 35/94/37 34/54/37
f 40/56/33 38/95/33 34/57/33
f 37/59/38 35/96/38 39/60/38
