# Blender v2.82 (sub 7) OBJ File: ''
# www.blender.org
o Cylinder_Cylinder.002
v 1.061563 0.147500 -0.108750
v 1.061563 0.002500 -0.108750
v 1.061563 0.002500 0.108750
v 2.638438 0.147500 -0.108750
v 2.638438 0.002500 -0.108750
v 2.638438 0.147500 0.108750
v 2.638438 0.002500 0.108750
v 1.061563 0.147500 0.108750
v -0.350000 0.367597 0.138582
v -0.350000 0.563581 0.057403
v -0.350000 0.482402 -0.138582
v 0.350000 0.100000 -0.325000
v -0.350000 0.100000 -0.325000
v -0.350000 0.100000 0.000000
v -0.350000 0.850000 0.425000
v -0.350000 -0.000000 0.425000
v 0.350000 -0.000000 0.425000
v -0.350000 0.850000 -0.425000
v 0.350000 0.850000 -0.425000
v 0.350000 0.000000 -0.425000
v 0.350000 0.425000 -0.325000
v -0.350000 0.425000 -0.325000
v 0.350000 0.425000 -0.150000
v 0.350000 0.367598 -0.138582
v -0.350000 0.367597 -0.138582
v 0.350000 0.318934 -0.106066
v -0.350000 0.318933 -0.106066
v 0.350000 0.286418 -0.057403
v -0.350000 0.286417 -0.057403
v 0.350000 0.275000 0.000000
v -0.350000 0.274999 0.000000
v 0.350000 0.286418 0.057403
v -0.350000 0.286417 0.057403
v 0.350000 0.318934 0.106066
v -0.350000 0.318933 0.106066
v 0.350000 0.367598 0.138582
v 0.350000 0.425000 0.150000
v -0.350000 0.424999 0.150000
v 0.350000 0.482403 0.138582
v -0.350000 0.482402 0.138582
v 0.350000 0.531066 0.106066
v -0.350000 0.531065 0.106066
v 0.350000 0.563582 0.057403
v 0.350000 0.575000 0.000000
v -0.350000 0.574999 0.000000
v 0.350000 0.563582 -0.057403
v -0.350000 0.563581 -0.057403
v 0.350000 0.531066 -0.106066
v -0.350000 0.531065 -0.106066
v 0.350000 0.482403 -0.138582
v -0.350000 0.424999 -0.150000
v 1.050000 0.748357 0.133939
v 1.050000 0.774999 0.000000
v 1.050000 0.672487 0.247487
v 1.050000 0.558939 0.323358
v 1.050000 0.424999 0.350000
v 1.050000 0.291060 0.323358
v 1.050000 0.177512 0.247487
v 1.050000 0.101642 0.133939
v 1.050000 0.101642 -0.133939
v 1.050000 0.074999 0.000000
v 1.050000 0.177512 -0.247487
v 1.050000 0.291060 -0.323358
v 1.050000 0.424999 -0.350000
v 1.050000 0.558938 -0.323358
v 1.050000 0.672487 -0.247487
v 1.050000 0.748357 -0.133939
v -0.350000 0.000000 -0.425000
v 2.850000 0.425000 0.175000
v 2.850000 0.250000 0.000000
v 2.850000 0.425000 -0.175000
v 2.125000 0.212868 0.212132
v 2.375000 0.212868 0.212132
v 2.375000 0.036091 0.388909
v 2.850000 0.600000 0.000000
v 2.675000 0.775001 0.000000
v 2.675000 0.748359 0.133939
v 2.850000 0.586679 -0.066970
v 2.675000 0.748359 -0.133939
v 2.850000 0.548744 -0.123744
v 2.675000 0.672488 -0.247487
v 2.850000 0.491970 -0.161679
v 2.675000 0.558940 -0.323358
v 2.675000 0.425001 -0.350000
v 2.850000 0.358031 -0.161679
v 2.675000 0.291062 -0.323358
v 2.850000 0.301256 -0.123744
v 2.675000 0.177513 -0.247487
v 2.850000 0.263321 -0.066970
v 2.675000 0.101643 -0.133939
v 2.675000 0.075001 0.000000
v 2.850000 0.263321 0.066970
v 2.675000 0.101643 0.133939
v 2.850000 0.301256 0.123744
v 2.675000 0.177513 0.247487
v 2.850000 0.358031 0.161679
v 2.675000 0.291062 0.323358
v 2.675000 0.425001 0.350000
v 2.850000 0.491970 0.161679
v 2.675000 0.558940 0.323358
v 2.850000 0.548744 0.123744
v 2.675000 0.672488 0.247487
v 2.850000 0.586679 0.066970
v 2.375000 0.036091 0.388909
v 2.375000 0.212868 0.212132
v 2.125000 0.212868 0.212132
v 2.375000 0.637132 -0.212132
v 2.375000 0.813909 -0.388909
v 2.125000 0.813909 -0.388909
v 2.375000 0.036091 -0.388909
v 2.375000 0.212868 -0.212132
v 2.125000 0.212868 -0.212132
v 2.375000 0.637132 0.212132
v 2.375000 0.813909 0.388909
v 2.125000 0.813909 0.388909
v -0.350000 0.424999 -0.150000
v 0.350000 0.425000 -0.150000
v 0.350000 0.425000 -0.325000
v -0.350000 0.274999 0.000000
v -0.350000 0.100000 0.000000
v 0.350000 0.100000 0.000000
v -0.350000 0.425000 0.325000
v 0.350000 0.425000 0.325000
v 0.350000 0.425000 0.150000
v 0.350000 0.575000 0.000000
v 0.350000 0.750000 0.000000
v -0.350000 0.750000 0.000000
v -0.350000 0.750000 -0.325000
v 0.350000 0.750000 -0.325000
v 0.350000 0.531066 -0.106066
v -0.350000 0.750000 0.325000
v 0.350000 0.750000 0.325000
v 0.350000 0.531066 0.106066
v -0.350000 0.318933 0.106066
v -0.350000 0.100000 0.325000
v 0.350000 0.100000 0.325000
v -0.350000 0.318933 -0.106066
v -0.350000 0.100000 -0.325000
v 0.350000 0.100000 -0.325000
v 0.350000 0.750000 -0.325000
v -0.350000 0.750000 -0.325000
v -0.350000 0.750000 0.000000
v 0.350000 0.750000 0.325000
v -0.350000 0.750000 0.325000
v 0.350000 0.425000 0.325000
v 0.350000 0.100000 0.325000
v -0.350000 0.100000 0.325000
v 0.350000 0.100000 0.000000
v -0.350000 0.425000 0.325000
v 0.350000 0.850000 0.425000
v 0.350000 0.750000 0.000000
v 2.125000 0.813909 -0.388909
v 2.375000 0.813909 -0.388909
v 2.375000 0.637132 -0.212132
v 2.125000 0.036091 -0.388909
v 2.125000 0.212868 -0.212132
v 2.375000 0.212868 -0.212132
v 2.125000 0.813909 0.388909
v 2.375000 0.813909 0.388909
v 2.375000 0.637132 0.212132
v 0.350000 0.425000 -0.325000
v 0.350000 0.425000 -0.150000
v -0.350000 0.424999 -0.150000
v -0.350000 0.274999 0.000000
v 0.350000 0.275000 0.000000
v 0.350000 0.100000 0.000000
v 0.350000 0.425000 0.150000
v 0.350000 0.425000 0.325000
v -0.350000 0.425000 0.325000
v -0.350000 0.750000 0.000000
v 0.350000 0.750000 0.000000
v 0.350000 0.575000 0.000000
v 0.350000 0.531066 -0.106066
v 0.350000 0.750000 -0.325000
v -0.350000 0.750000 -0.325000
v 0.350000 0.531066 0.106066
v 0.350000 0.750000 0.325000
v -0.350000 0.750000 0.325000
v -0.350000 0.318933 0.106066
v 0.350000 0.318934 0.106066
v 0.350000 0.100000 0.325000
v -0.350000 0.318933 -0.106066
v 0.350000 0.318934 -0.106066
v 0.350000 0.100000 -0.325000
v -0.350000 0.100000 0.000000
v 2.125000 0.036091 0.388909
v 2.125000 0.036091 0.388909
v 2.125000 0.637132 -0.212132
v 2.125000 0.036091 -0.388909
v 2.125000 0.637132 0.212132
v -0.350000 0.425000 -0.325000
v 0.350000 0.275000 0.000000
v -0.350000 0.424999 0.150000
v -0.350000 0.574999 0.000000
v -0.350000 0.531065 -0.106066
v -0.350000 0.531065 0.106066
v 0.350000 0.318934 0.106066
v 0.350000 0.318934 -0.106066
v 2.125000 0.637132 -0.212132
v 2.375000 0.036091 -0.388909
v 2.125000 0.637132 0.212132
v -0.350000 0.425000 -0.325000
v -0.350000 0.424999 0.150000
v -0.350000 0.574999 0.000000
v -0.350000 0.531065 -0.106066
v -0.350000 0.531065 0.106066
v -0.350000 0.100000 0.325000
v -0.350000 0.100000 -0.325000
vt 0.630435 0.607143
vt 0.652174 0.607143
vt 0.652174 0.678571
vt 0.913043 0.571429
vt 0.913043 0.607143
vt 0.934783 0.678571
vt 0.913043 0.678571
vt 0.652174 0.714286
vt 0.622155 0.607621
vt 0.608405 0.664969
vt 0.573497 0.642379
vt 0.130435 0.857143
vt -0.000000 0.857143
vt -0.000000 0.750000
vt 0.282609 0.500000
vt 0.282609 0.250000
vt 0.413043 0.250000
vt 0.282609 0.750000
vt 0.413043 0.750000
vt 0.413043 1.000000
vt 0.130435 0.107143
vt 0.000000 0.107143
vt 0.000000 0.000000
vt 0.543478 0.214286
vt 0.543478 0.232143
vt 0.413043 0.232143
vt 0.543478 0.250000
vt 0.413043 0.250000
vt 0.543478 0.267857
vt 0.413043 0.267857
vt 0.543478 0.285714
vt 0.413043 0.285714
vt 0.543478 -0.000000
vt 0.543478 0.017857
vt 0.413043 0.017857
vt 0.543478 0.035714
vt 0.413043 0.035714
vt 0.543478 0.053571
vt 0.543478 0.071429
vt 0.413043 0.071429
vt 0.543478 0.089286
vt 0.413043 0.089286
vt 0.543478 0.107143
vt 0.413043 0.107143
vt 0.543478 0.125000
vt 0.543478 0.142857
vt 0.413043 0.142857
vt 0.543478 0.160714
vt 0.413043 0.160714
vt 0.543478 0.178571
vt 0.413043 0.178571
vt 0.543478 0.196429
vt 0.413043 0.214286
vt 0.413043 0.196429
vt 0.543478 0.267857
vt 0.673913 0.250000
vt 0.673913 0.285714
vt 0.673913 0.214286
vt 0.543478 0.250000
vt 0.543478 0.214286
vt 0.543478 0.196429
vt 0.673913 0.178571
vt 0.543478 0.178571
vt 0.543478 0.160714
vt 0.673913 0.142857
vt 0.543478 0.142857
vt 0.543478 0.125000
vt 0.673913 0.107143
vt 0.543478 0.107143
vt 0.543478 0.089286
vt 0.673913 0.071429
vt 0.543478 0.071429
vt 0.543478 0.053571
vt 0.673913 0.035714
vt 0.543478 0.035714
vt 0.543478 0.017857
vt 0.673913 0.535714
vt 0.673913 0.571429
vt 0.543478 0.571429
vt 0.673913 0.500000
vt 0.543478 0.535714
vt 0.673913 0.464286
vt 0.543478 0.500000
vt 0.673913 0.428571
vt 0.543478 0.464286
vt 0.673913 0.392857
vt 0.543478 0.428571
vt 0.673913 0.357143
vt 0.543478 0.392857
vt 0.673913 0.321429
vt 0.543478 0.357143
vt 0.543478 0.321429
vt 0.282609 -0.000000
vt 0.413043 -0.000000
vt 0.937764 0.625000
vt 0.967391 0.576327
vt 0.997018 0.625000
vt 0.478261 0.285714
vt 0.413043 0.285714
vt 0.413043 0.392857
vt 1.000000 0.285714
vt 0.956522 0.285714
vt 0.956522 0.250000
vt 1.000000 0.303571
vt 1.000000 0.321429
vt 0.956522 0.321429
vt 1.000000 0.357143
vt 0.956522 0.357143
vt 1.000000 0.375000
vt 1.000000 0.392857
vt 0.956522 0.392857
vt 1.000000 0.410714
vt 1.000000 0.428571
vt 0.956522 0.428571
vt 1.000000 0.446429
vt 1.000000 0.464286
vt 0.956522 0.464286
vt 1.000000 0.500000
vt 0.956522 0.500000
vt 1.000000 0.517857
vt 1.000000 0.535714
vt 0.956522 0.535714
vt 1.000000 0.571429
vt 0.956522 0.571429
vt 1.000000 0.035714
vt 0.956522 0.035714
vt 0.956522 0.000000
vt 1.000000 0.071429
vt 0.956522 0.071429
vt 1.000000 0.107143
vt 0.956522 0.107143
vt 1.000000 0.142857
vt 0.956522 0.142857
vt 1.000000 0.178571
vt 0.956522 0.178571
vt 1.000000 0.214286
vt 0.956522 0.214286
vt 1.000000 0.250000
vt 0.413043 0.392857
vt 0.413043 0.285714
vt 0.478261 0.285714
vt 0.478261 0.285714
vt 0.478261 0.392857
vt 0.413043 0.392857
vt 0.413043 0.392857
vt 0.413043 0.285714
vt 0.478261 0.285714
vt 0.478261 0.285714
vt 0.478261 0.392857
vt 0.413043 0.392857
vt 0.141304 0.500000
vt 0.271739 0.500000
vt 0.271739 0.607143
vt 0.271739 0.500000
vt 0.271739 0.607143
vt 0.141304 0.607143
vt 0.271739 0.607143
vt 0.141304 0.607143
vt 0.141304 0.500000
vt 0.271739 0.500000
vt 0.271739 0.607143
vt 0.141304 0.607143
vt 0.271739 0.607143
vt 0.141304 0.607143
vt 0.141304 0.500000
vt 0.271739 0.607143
vt 0.141304 0.607143
vt 0.141304 0.500000
vt 0.271739 0.500000
vt 0.271739 0.607143
vt 0.141304 0.607143
vt 0.271739 0.500000
vt 0.271739 0.607143
vt 0.141304 0.607143
vt 0.271739 0.500000
vt 0.271739 0.607143
vt 0.141304 0.607143
vt 0.271739 0.500000
vt 0.271739 0.607143
vt 0.141304 0.607143
vt 0.141304 0.500000
vt 0.141304 0.500000
vt 0.271739 0.500000
vt 0.130435 0.214286
vt 0.000000 0.214286
vt 0.000000 0.321429
vt 0.130435 0.428571
vt 0.000000 0.428571
vt 0.130435 0.535714
vt 0.130435 0.642857
vt -0.000000 0.642857
vt 0.130435 0.750000
vt 0.206522 0.214286
vt 0.260870 0.214286
vt 0.282609 0.250000
vt 0.260870 0.125000
vt 0.260870 0.035714
vt 0.282609 -0.000000
vt 0.152174 0.125000
vt 0.152174 0.214286
vt 0.130435 0.250000
vt 0.206522 0.035714
vt 0.206522 0.285714
vt 0.152174 0.285714
vt 0.130435 0.250000
vt 0.152174 0.375000
vt 0.152174 0.464286
vt 0.130435 0.500000
vt 0.206522 0.464286
vt 0.282609 0.500000
vt 0.260870 0.375000
vt 0.282609 0.250000
vt 0.413043 0.392857
vt 0.478261 0.392857
vt 0.478261 0.285714
vt 0.478261 0.392857
vt 0.478261 0.285714
vt 0.413043 0.285714
vt 0.413043 0.392857
vt 0.478261 0.392857
vt 0.478261 0.285714
vt 0.271739 0.607143
vt 0.271739 0.500000
vt 0.141304 0.500000
vt 0.271739 0.500000
vt 0.141304 0.500000
vt 0.141304 0.607143
vt 0.141304 0.500000
vt 0.141304 0.607143
vt 0.271739 0.607143
vt 0.141304 0.607143
vt 0.271739 0.607143
vt 0.271739 0.500000
vt 0.141304 0.500000
vt 0.141304 0.607143
vt 0.271739 0.607143
vt 0.141304 0.500000
vt 0.141304 0.607143
vt 0.271739 0.607143
vt 0.271739 0.500000
vt 0.141304 0.500000
vt 0.141304 0.607143
vt 0.271739 0.500000
vt 0.141304 0.500000
vt 0.141304 0.607143
vt 0.141304 0.607143
vt 0.271739 0.607143
vt 0.271739 0.500000
vt 0.271739 0.607143
vt 0.271739 0.500000
vt 0.141304 0.500000
vt 0.141304 0.607143
vt 0.271739 0.607143
vt 0.271739 0.500000
vt 0.630435 0.678571
vt 0.652174 0.571429
vt 0.934783 0.607143
vt 0.913043 0.714286
vt 0.571301 0.625761
vt 0.573143 0.609026
vt 0.578743 0.594724
vt 0.587248 0.585031
vt 0.597363 0.581423
vt 0.607549 0.584449
vt 0.616255 0.593649
vt 0.624351 0.624239
vt 0.622509 0.640974
vt 0.616910 0.655276
vt 0.598289 0.668577
vt 0.588103 0.665551
vt 0.579397 0.656351
vt 0.413043 0.500000
vt 0.282609 1.000000
vt 0.130435 0.000000
vt 0.413043 -0.000000
vt 0.413043 0.053571
vt 0.413043 0.125000
vt 0.543478 0.285714
vt 0.543478 0.232143
vt 0.673913 -0.000000
vt 0.543478 0.553571
vt 0.543478 0.517857
vt 0.543478 0.482143
vt 0.543478 0.446429
vt 0.543478 0.410714
vt 0.543478 0.375000
vt 0.543478 0.339286
vt 0.543478 0.303571
vt 0.994763 0.643627
vt 0.988341 0.659417
vt 0.978729 0.669968
vt 0.967391 0.673673
vt 0.956053 0.669968
vt 0.946442 0.659417
vt 0.940019 0.643626
vt 0.940019 0.606374
vt 0.946442 0.590583
vt 0.956053 0.580032
vt 0.978729 0.580032
vt 0.988341 0.590583
vt 0.994763 0.606374
vt 0.478261 0.392857
vt 1.000000 0.267857
vt 1.000000 0.339286
vt 1.000000 0.482143
vt 1.000000 0.553571
vt 1.000000 0.017857
vt 1.000000 0.053571
vt 1.000000 0.089286
vt 1.000000 0.125000
vt 1.000000 0.160714
vt 1.000000 0.196429
vt 1.000000 0.232143
vt 0.478261 0.392857
vt 0.413043 0.285714
vt 0.478261 0.392857
vt 0.413043 0.285714
vt 0.141304 0.607143
vt 0.141304 0.500000
vt 0.271739 0.500000
vt 0.141304 0.500000
vt 0.271739 0.500000
vt 0.271739 0.500000
vt 0.141304 0.500000
vt 0.141304 0.500000
vt 0.141304 0.500000
vt 0.141304 0.500000
vt 0.271739 0.500000
vt 0.130435 0.321429
vt -0.000000 0.535714
vt 0.130435 0.000000
vt 0.152174 0.035714
vt 0.260870 0.285714
vt 0.260870 0.464286
vt 0.413043 0.285714
vt 0.413043 0.392857
vt 0.413043 0.285714
vt 0.141304 0.607143
vt 0.271739 0.500000
vt 0.141304 0.500000
vt 0.271739 0.500000
vt 0.271739 0.500000
vt 0.271739 0.607143
vt 0.271739 0.607143
vt 0.141304 0.500000
vt 0.141304 0.500000
vt 0.271739 0.500000
vt 0.141304 0.500000
vn -1.0000 0.0000 0.0000
vn 0.0000 0.0000 -1.0000
vn 1.0000 0.0000 0.0000
vn 0.0000 -0.0000 1.0000
vn 0.0000 -1.0000 -0.0000
vn 0.0000 1.0000 0.0000
vn 0.0000 -0.1951 -0.9808
vn 0.0000 -0.5556 -0.8315
vn 0.0000 -0.8315 -0.5556
vn 0.0000 -0.9808 -0.1951
vn 0.0000 -0.9808 0.1951
vn 0.0000 -0.8315 0.5556
vn 0.0000 -0.5556 0.8315
vn 0.0000 -0.1951 0.9808
vn -0.0000 0.1951 0.9808
vn -0.0000 0.5556 0.8315
vn -0.0000 0.8315 0.5556
vn -0.0000 0.9808 0.1951
vn -0.0000 0.9808 -0.1951
vn -0.0000 0.8315 -0.5556
vn -0.0000 0.1951 -0.9808
vn -0.0000 0.5556 -0.8315
vn -0.2698 0.9444 0.1878
vn -0.2698 0.9444 0.1879
vn -0.2698 0.8006 0.5350
vn -0.2698 0.5350 0.8006
vn -0.2698 0.1879 0.9444
vn -0.2698 -0.1879 0.9444
vn -0.2698 -0.5350 0.8006
vn -0.2698 -0.8006 0.5350
vn -0.2698 -0.9444 0.1879
vn -0.2698 -0.9444 -0.1879
vn -0.2698 -0.8006 -0.5350
vn -0.2698 -0.5350 -0.8006
vn -0.2698 -0.1879 -0.9444
vn -0.2698 0.1879 -0.9444
vn -0.2698 0.5350 -0.8006
vn -0.2698 0.8006 -0.5350
vn -0.2698 0.9444 -0.1879
vn -0.2698 0.9444 -0.1878
vn 0.0000 -0.7071 -0.7071
vn 0.7002 0.7002 0.1393
vn 0.7002 0.7002 -0.1393
vn 0.7002 0.5936 -0.3966
vn 0.7002 0.3966 -0.5936
vn 0.7002 0.1393 -0.7002
vn 0.7002 -0.1393 -0.7002
vn 0.7002 -0.3966 -0.5936
vn 0.7002 -0.5936 -0.3966
vn 0.7002 -0.7002 -0.1393
vn 0.7002 -0.7002 0.1393
vn 0.7002 -0.5936 0.3966
vn 0.7002 -0.3966 0.5936
vn 0.7002 -0.1393 0.7002
vn 0.7002 0.1393 0.7002
vn 0.7002 0.3966 0.5936
vn 0.7002 0.5936 0.3966
vn 0.0000 0.7071 0.7071
vn 0.0000 -0.7071 0.7071
vn -0.0000 0.7071 -0.7071
s 1
f 1/1/1 2/2/1 3/3/1
f 4/4/2 5/5/2 2/2/2
f 6/6/3 7/7/3 5/5/3
f 8/8/4 3/3/4 7/7/4
f 2/2/5 5/5/5 7/7/5
f 9/9/1 10/10/1 11/11/1
f 12/12/6 13/13/6 14/14/6
f 15/15/4 16/16/4 17/17/4
f 18/18/2 19/19/2 20/20/2
f 19/19/6 18/18/6 15/15/6
f 21/21/4 22/22/4 13/23/4
f 23/24/7 24/25/7 25/26/7
f 24/25/8 26/27/8 27/28/8
f 26/27/9 28/29/9 29/30/9
f 28/29/10 30/31/10 31/32/10
f 30/33/11 32/34/11 33/35/11
f 33/35/12 32/34/12 34/36/12
f 35/37/13 34/36/13 36/38/13
f 36/38/14 37/39/14 38/40/14
f 37/39/15 39/41/15 40/42/15
f 40/42/16 39/41/16 41/43/16
f 42/44/17 41/43/17 43/45/17
f 43/45/18 44/46/18 45/47/18
f 44/46/19 46/48/19 47/49/19
f 46/48/20 48/50/20 49/51/20
f 50/52/21 23/24/21 51/53/21
f 48/50/22 50/52/22 11/54/22
f 43/55/23 52/56/24 53/57/24
f 54/58/25 52/56/25 43/59/25
f 54/58/26 41/60/26 39/61/26
f 55/62/27 39/63/27 37/64/27
f 56/65/28 37/66/28 36/67/28
f 57/68/29 36/69/29 34/70/29
f 58/71/30 34/72/30 32/73/30
f 59/74/31 32/75/31 30/76/31
f 60/77/32 61/78/32 30/79/32
f 62/80/33 60/77/33 28/81/33
f 63/82/34 62/80/34 26/83/34
f 64/84/35 63/82/35 24/85/35
f 65/86/36 64/84/36 23/87/36
f 66/88/37 65/86/37 50/89/37
f 67/90/38 66/88/38 48/91/38
f 53/57/39 67/90/39 46/92/40
f 68/93/5 20/94/5 17/17/5
f 69/95/3 70/96/3 71/97/3
f 72/98/41 73/99/41 74/100/41
f 75/101/42 76/102/42 77/103/42
f 75/104/43 78/105/43 79/106/43
f 80/107/44 81/108/44 79/106/44
f 80/109/45 82/110/45 83/111/45
f 82/112/46 71/113/46 84/114/46
f 71/115/47 85/116/47 86/117/47
f 87/118/48 88/119/48 86/117/48
f 87/120/49 89/121/49 90/122/49
f 70/123/50 91/124/50 90/122/50
f 92/125/51 93/126/51 91/127/51
f 94/128/52 95/129/52 93/126/52
f 96/130/53 97/131/53 95/129/53
f 69/132/54 98/133/54 97/131/54
f 99/134/55 100/135/55 98/133/55
f 101/136/56 102/137/56 100/135/56
f 103/138/57 77/103/57 102/137/57
f 98/133/15 100/135/15 55/62/15
f 97/131/14 98/133/14 56/65/14
f 95/129/13 97/131/13 57/68/13
f 93/126/12 95/129/12 58/71/12
f 91/127/11 93/126/11 59/74/11
f 61/78/10 60/77/10 90/122/10
f 76/102/19 79/106/19 67/90/19
f 79/106/20 81/108/20 66/88/20
f 81/108/22 83/111/22 65/86/22
f 83/111/21 84/114/21 64/84/21
f 84/114/7 86/117/7 63/82/7
f 88/119/9 90/122/9 60/77/9
f 86/117/8 88/119/8 62/80/8
f 100/135/16 102/137/16 54/58/16
f 102/137/17 77/103/17 52/56/17
f 77/103/18 76/102/18 53/57/18
f 104/139/58 105/140/58 106/141/58
f 107/142/58 108/143/58 109/144/58
f 110/145/59 111/146/59 112/147/59
f 113/148/59 114/149/59 115/150/59
f 116/151/6 117/152/6 118/153/6
f 119/154/4 120/155/4 121/156/4
f 122/157/6 123/158/6 124/159/6
f 125/160/4 126/161/4 127/162/4
f 128/163/41 129/164/41 130/165/41
f 131/166/60 132/167/60 133/168/60
f 134/169/58 135/170/58 136/171/58
f 137/172/59 138/173/59 139/174/59
f 118/175/41 121/176/41 120/177/41
f 122/178/59 120/155/59 121/156/59
f 127/179/60 126/180/60 118/181/60
f 122/182/58 123/183/58 126/161/58
f 21/21/4 140/184/4 141/185/4
f 142/186/5 141/185/5 140/184/5
f 143/187/5 144/188/5 142/186/5
f 144/188/2 143/187/2 145/189/2
f 145/189/2 146/190/2 147/191/2
f 147/191/6 146/190/6 148/192/6
f 142/193/1 144/194/1 15/195/1
f 149/196/1 147/197/1 16/198/1
f 22/199/1 141/200/1 18/201/1
f 16/198/1 147/197/1 14/202/1
f 148/203/3 146/204/3 17/205/3
f 145/206/3 143/207/3 150/208/3
f 150/208/3 151/209/3 19/210/3
f 19/210/3 21/211/3 20/212/3
f 152/213/41 153/214/41 154/215/41
f 155/216/60 156/217/60 157/218/60
f 158/219/60 159/220/60 160/221/60
f 161/222/5 162/223/5 163/224/5
f 164/225/2 165/226/2 166/227/2
f 167/228/5 168/229/5 169/230/5
f 170/231/2 171/232/2 172/233/2
f 173/234/58 174/235/58 175/236/58
f 176/237/59 177/238/59 178/239/59
f 179/240/41 180/241/41 181/242/41
f 182/243/60 183/244/60 184/245/60
f 185/246/58 166/247/58 161/248/58
f 166/227/60 185/249/60 169/250/60
f 161/251/59 171/252/59 170/253/59
f 170/231/41 171/232/41 168/254/41
f 8/255/1 1/1/1 3/3/1
f 1/256/2 4/4/2 2/2/2
f 4/257/3 6/6/3 5/5/3
f 6/258/4 8/8/4 7/7/4
f 3/3/5 2/2/5 7/7/5
f 11/11/1 51/259/1 25/260/1
f 25/260/1 27/261/1 29/262/1
f 29/262/1 31/263/1 33/264/1
f 33/264/1 35/265/1 29/262/1
f 9/9/1 38/266/1 10/10/1
f 40/267/1 42/268/1 10/10/1
f 10/10/1 45/269/1 11/11/1
f 47/270/1 49/271/1 11/11/1
f 11/11/1 25/260/1 9/9/1
f 29/262/1 35/265/1 9/9/1
f 38/266/1 40/267/1 10/10/1
f 45/269/1 47/270/1 11/11/1
f 25/260/1 29/262/1 9/9/1
f 148/192/6 12/12/6 14/14/6
f 150/272/4 15/15/4 17/17/4
f 68/273/2 18/18/2 20/20/2
f 150/272/6 19/19/6 15/15/6
f 12/274/4 21/21/4 13/23/4
f 51/53/7 23/24/7 25/26/7
f 25/26/8 24/25/8 27/28/8
f 27/28/9 26/27/9 29/30/9
f 29/30/10 28/29/10 31/32/10
f 31/275/11 30/33/11 33/35/11
f 35/37/12 33/35/12 34/36/12
f 9/276/13 35/37/13 36/38/13
f 9/276/14 36/38/14 38/40/14
f 38/40/15 37/39/15 40/42/15
f 42/44/16 40/42/16 41/43/16
f 10/277/17 42/44/17 43/45/17
f 10/277/18 43/45/18 45/47/18
f 45/47/19 44/46/19 47/49/19
f 47/49/20 46/48/20 49/51/20
f 11/54/21 50/52/21 51/53/21
f 49/51/22 48/50/22 11/54/22
f 44/278/23 43/55/23 53/57/24
f 41/279/25 54/58/25 43/59/25
f 55/62/26 54/58/26 39/61/26
f 56/65/27 55/62/27 37/64/27
f 57/68/28 56/65/28 36/67/28
f 58/71/29 57/68/29 34/70/29
f 59/74/30 58/71/30 32/73/30
f 61/280/31 59/74/31 30/76/31
f 28/281/32 60/77/32 30/79/32
f 26/282/33 62/80/33 28/81/33
f 24/283/34 63/82/34 26/83/34
f 23/284/35 64/84/35 24/85/35
f 50/285/36 65/86/36 23/87/36
f 48/286/37 66/88/37 50/89/37
f 46/287/38 67/90/38 48/91/38
f 44/288/40 53/57/39 46/92/40
f 16/16/5 68/93/5 17/17/5
f 71/97/3 82/289/3 80/290/3
f 80/290/3 78/291/3 75/292/3
f 75/292/3 103/293/3 101/294/3
f 101/294/3 99/295/3 69/95/3
f 69/95/3 96/296/3 70/96/3
f 94/297/3 92/298/3 70/96/3
f 70/96/3 89/299/3 87/300/3
f 87/300/3 85/301/3 70/96/3
f 71/97/3 80/290/3 75/292/3
f 75/292/3 101/294/3 69/95/3
f 96/296/3 94/297/3 70/96/3
f 70/96/3 85/301/3 71/97/3
f 71/97/3 75/292/3 69/95/3
f 186/302/41 72/98/41 74/100/41
f 103/303/42 75/101/42 77/103/42
f 76/102/43 75/104/43 79/106/43
f 78/304/44 80/107/44 79/106/44
f 81/108/45 80/109/45 83/111/45
f 83/111/46 82/112/46 84/114/46
f 84/114/47 71/115/47 86/117/47
f 85/305/48 87/118/48 86/117/48
f 88/119/49 87/120/49 90/122/49
f 89/306/50 70/123/50 90/122/50
f 70/307/51 92/125/51 91/127/51
f 92/308/52 94/128/52 93/126/52
f 94/309/53 96/130/53 95/129/53
f 96/310/54 69/132/54 97/131/54
f 69/311/55 99/134/55 98/133/55
f 99/312/56 101/136/56 100/135/56
f 101/313/57 103/138/57 102/137/57
f 56/65/15 98/133/15 55/62/15
f 57/68/14 97/131/14 56/65/14
f 58/71/13 95/129/13 57/68/13
f 59/74/12 93/126/12 58/71/12
f 61/280/11 91/127/11 59/74/11
f 91/124/10 61/78/10 90/122/10
f 53/57/19 76/102/19 67/90/19
f 67/90/20 79/106/20 66/88/20
f 66/88/22 81/108/22 65/86/22
f 65/86/21 83/111/21 64/84/21
f 64/84/7 84/114/7 63/82/7
f 62/80/9 88/119/9 60/77/9
f 63/82/8 86/117/8 62/80/8
f 55/62/16 100/135/16 54/58/16
f 54/58/17 102/137/17 52/56/17
f 52/56/18 77/103/18 53/57/18
f 187/314/58 104/139/58 106/141/58
f 188/315/58 107/142/58 109/144/58
f 189/316/59 110/145/59 112/147/59
f 190/317/59 113/148/59 115/150/59
f 191/318/6 116/151/6 118/153/6
f 192/319/4 119/154/4 121/156/4
f 193/320/6 122/157/6 124/159/6
f 194/321/4 125/160/4 127/162/4
f 195/322/41 128/163/41 130/165/41
f 196/323/60 131/166/60 133/168/60
f 197/324/58 134/169/58 136/171/58
f 198/325/59 137/172/59 139/174/59
f 191/326/41 118/175/41 120/177/41
f 123/327/59 122/178/59 121/156/59
f 191/328/60 127/179/60 118/181/60
f 127/162/58 122/182/58 126/161/58
f 22/22/4 21/21/4 141/185/4
f 151/329/5 142/186/5 140/184/5
f 151/329/5 143/187/5 142/186/5
f 149/330/2 144/188/2 145/189/2
f 149/330/2 145/189/2 147/191/2
f 14/14/6 147/191/6 148/192/6
f 15/195/1 18/201/1 142/193/1
f 141/200/1 142/193/1 18/201/1
f 16/198/1 15/195/1 149/196/1
f 144/194/1 149/196/1 15/195/1
f 18/201/1 68/331/1 22/199/1
f 13/332/1 22/199/1 68/331/1
f 14/202/1 13/332/1 68/331/1
f 68/331/1 16/198/1 14/202/1
f 17/205/3 20/212/3 148/203/3
f 12/333/3 148/203/3 20/212/3
f 150/208/3 17/205/3 145/206/3
f 146/204/3 145/206/3 17/205/3
f 140/334/3 19/210/3 151/209/3
f 150/208/3 143/207/3 151/209/3
f 12/333/3 20/212/3 21/211/3
f 19/210/3 140/334/3 21/211/3
f 199/335/41 152/213/41 154/215/41
f 200/336/60 155/216/60 157/218/60
f 201/337/60 158/219/60 160/221/60
f 202/338/5 161/222/5 163/224/5
f 185/249/2 164/225/2 166/227/2
f 203/339/5 167/228/5 169/230/5
f 204/340/2 170/231/2 172/233/2
f 205/341/58 173/234/58 175/236/58
f 206/342/59 176/237/59 178/239/59
f 207/343/41 179/240/41 181/242/41
f 208/344/60 182/243/60 184/245/60
f 202/345/58 185/246/58 161/248/58
f 168/346/60 166/227/60 169/250/60
f 202/347/59 161/251/59 170/253/59
f 169/348/41 170/231/41 168/254/41
