# Blender v2.82 (sub 7) OBJ File: ''
# www.blender.org
o Cylinder
v 0.044969 -0.087381 -1.456574
v 0.044969 2.367381 -1.456574
v 0.240059 -0.087381 -1.437359
v 0.240059 2.367381 -1.437359
v 0.382683 0.140000 -0.923880
v 0.382683 2.140000 -0.923880
v 0.555570 0.140000 -0.831470
v 0.555570 2.140000 -0.831470
v 0.947519 -0.075778 -0.904408
v 0.947519 2.355778 -0.904408
v 1.071882 -0.075778 -0.752872
v 1.071882 2.355778 -0.752872
v 0.923880 0.140000 -0.382683
v 0.923880 2.140000 -0.382683
v 0.980785 0.140000 -0.195090
v 0.980785 2.140000 -0.195090
v 1.255857 -0.071518 0.081939
v 1.255857 2.351518 0.081939
v 1.214738 -0.071518 0.277030
v 1.214738 2.351518 0.277030
v 0.923880 0.140000 0.382683
v 0.923880 2.140000 0.382683
v 0.831470 0.140000 0.555570
v 0.831470 2.140000 0.555570
v 0.869731 -0.059064 0.905266
v 0.869731 2.339064 0.905266
v 0.718195 -0.059064 1.029628
v 0.718195 2.339064 1.029628
v 0.382683 0.140000 0.923880
v 0.382683 2.140000 0.923880
v 0.195090 0.140000 0.980785
v 0.195090 2.140000 0.980785
v -0.000000 0.140000 1.000000
v -0.000000 2.140000 1.000000
v -0.314259 -0.191721 1.373629
v -0.314259 2.471721 1.373629
v -0.501852 -0.191721 1.316723
v -0.501852 2.471721 1.316723
v -0.555571 0.140000 0.831469
v -0.555571 2.140000 0.831469
v -0.707107 0.140000 0.707106
v -0.707107 2.140000 0.707106
v -1.189052 -0.080336 0.746701
v -1.189052 2.360336 0.746701
v -1.281462 -0.080336 0.573814
v -1.281462 2.360336 0.573814
v -0.980785 0.140000 0.195089
v -0.980785 2.140000 0.195089
v -1.322766 -0.149810 -0.031791
v -1.322766 2.429810 -0.031791
v -1.303551 -0.149810 -0.226881
v -1.303551 2.429810 -0.226881
v -0.923879 0.140000 -0.382684
v -0.923879 2.140000 -0.382684
v -0.831469 0.140000 -0.555571
v -0.831469 2.140000 -0.555571
v -1.034489 -0.164065 -1.106026
v -1.034489 2.444066 -1.106026
v -0.882952 -0.164065 -1.230388
v -0.882952 2.444066 -1.230388
v -0.382682 0.140000 -0.923880
v -0.382682 2.140000 -0.923880
v -0.195089 0.140000 -0.980786
v -0.195089 2.140000 -0.980786
vt 0.975826 0.000000
vt 1.000000 0.460744
vt 0.975826 0.460744
vt 0.857043 0.460744
vt 0.790124 0.042678
vt 0.857043 0.000000
vt 0.334684 0.540588
vt 0.361670 0.915976
vt 0.334684 0.915976
vt 0.361670 0.540588
vt 0.402006 0.956476
vt 0.402006 0.500088
vt 0.427696 0.956476
vt 0.673137 0.956476
vt 0.619469 0.540588
vt 0.673137 0.500088
vt 0.619469 0.915976
vt 0.595125 0.540588
vt 0.909575 0.039701
vt 0.857043 0.454789
vt 0.857043 0.000000
vt 0.999098 0.954877
vt 0.971612 0.500088
vt 0.999098 0.500088
vt 0.950249 0.454789
vt 0.909575 0.039701
vt 0.950249 0.000000
vt 0.790124 0.412751
vt 0.764557 0.037363
vt 0.790124 0.037363
vt 0.764557 0.412751
vt 0.717710 0.000000
vt 0.115564 0.500088
vt 0.137119 0.950202
vt 0.115564 0.950202
vt 0.137119 0.500088
vt 0.182842 0.912839
vt 0.182842 0.537451
vt 0.209016 0.912839
vt 0.209016 0.537451
vt 0.236026 0.912839
vt 0.865964 0.562350
vt 0.808233 1.000000
vt 0.808233 0.500088
vt 0.975826 0.499912
vt 0.950249 0.000000
vt 0.975826 0.000000
vt 0.808233 1.000000
vt 0.744330 0.562350
vt 0.808233 0.500088
vt 0.427696 0.541444
vt 0.447946 0.916832
vt 0.427696 0.916832
vt 0.447946 0.541444
vt 0.514630 0.958187
vt 0.514630 0.500088
vt 0.535260 0.958188
vt 0.535260 0.500088
vt 0.595125 0.916832
vt 0.865964 0.929872
vt 0.911943 0.500088
vt 0.911943 0.984267
vt 0.971612 0.984267
vt 0.944731 0.500088
vt 0.971612 0.500088
vt 0.944731 0.984267
vt 0.911943 0.554483
vt 0.115564 0.932547
vt 0.089543 0.557159
vt 0.115564 0.557159
vt 0.089544 0.932547
vt 0.021198 0.500088
vt 0.021198 0.989619
vt 0.000000 0.500088
vt 0.334684 0.989618
vt 0.253708 0.557159
vt 0.334684 0.500088
vt 0.073313 0.138510
vt 0.089576 0.109110
vt 0.158575 0.053741
vt 0.253708 0.932547
vt 0.236026 0.557159
vt 0.673137 0.542766
vt 0.744330 0.960832
vt 0.673137 0.918154
vt 0.559135 0.053741
vt 0.614436 0.000000
vt 0.628134 0.109111
vt 1.000000 0.000000
vt 0.790124 0.418066
vt 0.427696 0.500088
vt 0.595125 0.915976
vt 0.909575 0.415089
vt 0.971612 0.954877
vt 0.909575 0.415089
vt 0.717710 0.450114
vt 0.236026 0.537451
vt 0.865964 0.937738
vt 0.950249 0.499912
vt 0.744330 0.937738
vt 0.595125 0.541444
vt 0.865964 0.554483
vt 0.911943 0.929871
vt 0.000000 0.989619
vt 0.272651 0.387643
vt 0.269611 0.487933
vt 0.197034 0.423639
vt 0.244078 0.500088
vt 0.358855 0.326200
vt 0.347123 0.359351
vt 0.292819 0.363124
vt 0.170023 0.421579
vt 0.112049 0.500088
vt 0.097830 0.374307
vt 0.087672 0.484126
vt 0.327566 0.264946
vt 0.344425 0.132030
vt 0.356303 0.165787
vt 0.302597 0.125361
vt 0.329076 0.228210
vt 0.253328 0.016773
vt 0.277705 0.032735
vt 0.212373 0.050656
vt 0.284566 0.097928
vt 0.053319 0.244025
vt 0.079798 0.346874
vt 0.022955 0.335701
vt 0.014014 0.300973
vt 0.185362 0.048595
vt 0.000000 0.188596
vt 0.006751 0.152968
vt 0.079976 0.018696
vt 0.103274 0.000000
vt 0.236026 0.932547
vt 0.744330 0.500088
vt 0.520676 0.423640
vt 0.473632 0.500088
vt 0.448099 0.487933
vt 0.445059 0.387644
vt 0.630038 0.484126
vt 0.605662 0.500088
vt 0.619881 0.374307
vt 0.547687 0.421579
vt 0.424891 0.363124
vt 0.370588 0.359351
vt 0.358855 0.326200
vt 0.703696 0.300973
vt 0.694755 0.335701
vt 0.637912 0.346874
vt 0.390145 0.264946
vt 0.664391 0.244025
vt 0.388634 0.228210
vt 0.361407 0.165787
vt 0.415113 0.125361
vt 0.373285 0.132031
vt 0.710959 0.152968
vt 0.717710 0.188596
vt 0.433144 0.097928
vt 0.440005 0.032735
vt 0.505338 0.050656
vt 0.464382 0.016773
vt 0.644397 0.138511
vt 0.532348 0.048595
vt 0.637734 0.018696
vn 0.0980 0.0000 -0.9952
vn 0.9635 0.0000 -0.2676
vn 0.4714 0.0000 -0.8819
vn -0.1830 0.0000 -0.9831
vn 0.7730 0.0000 -0.6344
vn 0.9285 0.0000 0.3712
vn 0.9569 0.0000 -0.2903
vn 0.7096 0.0000 -0.7046
vn 0.9785 0.0000 0.2062
vn 0.3414 0.0000 0.9399
vn 0.8819 0.0000 0.4714
vn 0.9941 0.0000 -0.1088
vn 0.6344 0.0000 0.7730
vn -0.3006 0.0000 0.9537
vn 0.2903 0.0000 0.9569
vn 0.0980 0.0000 0.9952
vn 0.7653 0.0000 0.6437
vn -0.2903 0.0000 0.9569
vn -0.9939 0.0000 0.1100
vn -0.6344 0.0000 0.7730
vn 0.0819 0.0000 0.9966
vn -0.8819 0.0000 0.4714
vn -0.7832 0.0000 -0.6218
vn -0.5528 0.0000 0.8333
vn -0.9952 0.0000 -0.0980
vn -0.3796 0.0000 -0.9251
vn -0.8819 0.0000 -0.4714
vn -0.9382 0.0000 0.3460
vn -0.6344 0.0000 -0.7730
vn 0.5224 0.0000 -0.8527
vn 0.0000 1.0000 0.0000
vn -0.2903 0.0000 -0.9569
vn -0.8928 0.0000 -0.4505
vn 0.1726 -0.8042 -0.5688
vn -0.0408 0.9094 0.4140
vn -0.4063 0.8507 0.3334
vn 0.3051 0.8767 0.3718
vn -0.6135 0.7790 -0.1293
vn -0.5723 0.8181 -0.0564
vn -0.3552 0.8286 -0.4328
vn 0.6214 0.7811 0.0612
vn 0.3922 0.8956 -0.2097
vn 0.1726 0.8042 -0.5688
vn -0.0408 -0.9094 0.4140
vn 0.3051 -0.8767 0.3718
vn 0.3051 -0.8768 0.3718
vn 0.0000 -1.0000 0.0000
vn -0.4063 -0.8507 0.3334
vn 0.6214 -0.7811 0.0612
vn -0.5723 -0.8181 -0.0564
vn -0.6135 -0.7790 -0.1293
vn 0.3922 -0.8956 -0.2097
vn -0.3552 -0.8286 -0.4328
s off
f 2/1/1 3/2/1 1/3/1
f 4/4/2 5/5/2 3/6/2
f 6/7/3 7/8/3 5/9/3
f 8/10/4 9/11/4 7/8/4
f 10/12/5 11/13/5 9/11/5
f 12/14/6 13/15/6 11/16/6
f 14/17/7 15/18/7 13/15/7
f 15/19/8 18/20/8 17/21/8
f 18/22/9 19/23/9 17/24/9
f 20/25/10 21/26/10 19/27/10
f 22/28/11 23/29/11 21/30/11
f 24/31/12 25/32/12 23/29/12
f 26/33/13 27/34/13 25/35/13
f 28/36/14 29/37/14 27/34/14
f 30/38/15 31/39/15 29/37/15
f 32/40/16 33/41/16 31/39/16
f 33/42/17 36/43/17 35/44/17
f 36/45/18 37/46/18 35/47/18
f 38/48/19 39/49/19 37/50/19
f 40/51/20 41/52/20 39/53/20
f 42/54/21 43/55/21 41/52/21
f 44/56/22 45/57/22 43/55/22
f 46/58/23 47/59/23 45/57/23
f 47/60/24 50/61/24 49/62/24
f 50/63/25 51/64/25 49/65/25
f 52/66/26 53/67/26 51/64/26
f 54/68/27 55/69/27 53/70/27
f 56/71/28 57/72/28 55/69/28
f 58/73/29 59/74/29 57/72/29
f 60/75/30 61/76/30 59/77/30
f 42/78/31 40/79/31 34/80/31
f 62/81/32 63/82/32 61/76/32
f 64/83/33 1/84/33 63/85/33
f 33/86/34 35/87/34 39/88/34
f 2/1/1 4/89/1 3/2/1
f 4/4/2 6/90/2 5/5/2
f 6/7/3 8/10/3 7/8/3
f 8/10/4 10/12/4 9/11/4
f 10/12/5 12/91/5 11/13/5
f 12/14/6 14/17/6 13/15/6
f 14/17/7 16/92/7 15/18/7
f 15/19/8 16/93/8 18/20/8
f 18/22/9 20/94/9 19/23/9
f 20/25/10 22/95/10 21/26/10
f 22/28/11 24/31/11 23/29/11
f 24/31/12 26/96/12 25/32/12
f 26/33/13 28/36/13 27/34/13
f 28/36/14 30/38/14 29/37/14
f 30/38/15 32/40/15 31/39/15
f 32/40/16 34/97/16 33/41/16
f 33/42/17 34/98/17 36/43/17
f 36/45/18 38/99/18 37/46/18
f 38/48/19 40/100/19 39/49/19
f 40/51/20 42/54/20 41/52/20
f 42/54/21 44/56/21 43/55/21
f 44/56/22 46/58/22 45/57/22
f 46/58/23 48/101/23 47/59/23
f 47/60/24 48/102/24 50/61/24
f 50/63/25 52/66/25 51/64/25
f 52/66/26 54/103/26 53/67/26
f 54/68/27 56/71/27 55/69/27
f 56/71/28 58/73/28 57/72/28
f 58/73/29 60/104/29 59/74/29
f 60/75/30 62/81/30 61/76/30
f 6/105/35 4/106/35 64/107/35
f 4/106/35 2/108/35 64/107/35
f 12/109/36 10/110/36 8/111/36
f 8/111/31 6/105/31 64/107/31
f 62/112/37 60/113/37 56/114/37
f 60/113/37 58/115/37 56/114/37
f 8/111/31 64/107/31 62/112/31
f 14/116/36 12/109/36 8/111/36
f 20/117/38 18/118/38 22/119/38
f 18/118/39 16/120/39 22/119/39
f 16/120/31 14/116/31 56/114/31
f 14/116/31 8/111/31 62/112/31
f 14/116/31 62/112/31 56/114/31
f 28/121/40 26/122/40 30/123/40
f 26/122/40 24/124/40 30/123/40
f 24/124/31 22/119/31 48/125/31
f 22/119/31 16/120/31 48/125/31
f 54/126/41 52/127/41 50/128/41
f 16/120/31 56/114/31 54/126/31
f 30/123/31 24/124/31 42/78/31
f 34/80/31 32/129/31 30/123/31
f 16/120/31 54/126/31 48/125/31
f 54/126/41 50/128/41 48/125/41
f 48/125/42 46/130/42 44/131/42
f 34/80/31 30/123/31 42/78/31
f 24/124/31 48/125/31 42/78/31
f 38/132/43 36/133/43 40/79/43
f 36/133/43 34/80/43 40/79/43
f 48/125/42 44/131/42 42/78/42
f 62/81/32 64/134/32 63/82/32
f 64/83/33 2/135/33 1/84/33
f 63/136/44 1/137/44 3/138/44
f 63/136/44 3/138/44 5/139/44
f 57/140/45 59/141/45 55/142/45
f 59/141/46 61/143/46 55/142/46
f 61/143/47 63/136/47 7/144/47
f 63/136/47 5/139/47 7/144/47
f 7/144/48 9/145/48 11/146/48
f 49/147/49 51/148/49 53/149/49
f 53/149/47 55/142/47 13/150/47
f 55/142/47 61/143/47 13/150/47
f 61/143/47 7/144/47 13/150/47
f 7/144/48 11/146/48 13/150/48
f 47/151/49 49/147/49 53/149/49
f 15/152/50 17/153/50 21/154/50
f 17/153/51 19/155/51 21/154/51
f 53/149/47 13/150/47 15/152/47
f 43/156/52 45/157/52 47/151/52
f 47/151/47 53/149/47 15/152/47
f 23/158/53 25/159/53 29/160/53
f 25/159/53 27/161/53 29/160/53
f 15/152/47 21/154/47 47/151/47
f 21/154/47 23/158/47 47/151/47
f 43/156/52 47/151/52 41/162/52
f 41/162/47 47/151/47 23/158/47
f 29/160/47 31/163/47 33/86/47
f 23/158/47 29/160/47 41/162/47
f 41/162/47 29/160/47 39/88/47
f 35/87/34 37/164/34 39/88/34
f 29/160/47 33/86/47 39/88/47
